<?xml version="1.0" encoding="UTF-8" ?>
<svg xmlns="http://www.w3.org/2000/svg" xmlns:xlink="http://www.w3.org/1999/xlink" version="1.2" viewBox="0 0 60 28">
<style type="text/css">

tspan { white-space: pre; }

</style>
<!-- Page: 1/1 -->
<g transform="translate(8.8915, 10.2206)">
<line stroke-linejoin="round" stroke-linecap="round" stroke-width="0.0754" stroke="currentColor" x1="0.0377" y1="0" x2="43.2050" y2="0"></line>
</g>
<g transform="translate(8.8915, 9.2206)">
<line stroke-linejoin="round" stroke-linecap="round" stroke-width="0.0754" stroke="currentColor" x1="0.0377" y1="0" x2="43.2050" y2="0"></line>
</g>
<g transform="translate(8.8915, 8.2206)">
<line stroke-linejoin="round" stroke-linecap="round" stroke-width="0.0754" stroke="currentColor" x1="0.0377" y1="0" x2="43.2050" y2="0"></line>
</g>
<g transform="translate(8.8915, 7.2206)">
<line stroke-linejoin="round" stroke-linecap="round" stroke-width="0.0754" stroke="currentColor" x1="0.0377" y1="0" x2="43.2050" y2="0"></line>
</g>
<g transform="translate(8.8915, 6.2206)">
<line stroke-linejoin="round" stroke-linecap="round" stroke-width="0.0754" stroke="currentColor" x1="0.0377" y1="0" x2="43.2050" y2="0"></line>
</g>
<g transform="translate(3.5566, 11.2206)">
<rect x="42.8463" y="-0.0877" width="1.9587" height="0.1754" ry="0.0877" fill="currentColor"></rect>
</g>
<g transform="translate(8.8915, 21.3937)">
<line stroke-linejoin="round" stroke-linecap="round" stroke-width="0.0754" stroke="currentColor" x1="0.0377" y1="0" x2="43.2050" y2="0"></line>
</g>
<g transform="translate(8.8915, 20.3937)">
<line stroke-linejoin="round" stroke-linecap="round" stroke-width="0.0754" stroke="currentColor" x1="0.0377" y1="0" x2="43.2050" y2="0"></line>
</g>
<g transform="translate(8.8915, 19.3937)">
<line stroke-linejoin="round" stroke-linecap="round" stroke-width="0.0754" stroke="currentColor" x1="0.0377" y1="0" x2="43.2050" y2="0"></line>
</g>
<g transform="translate(8.8915, 18.3937)">
<line stroke-linejoin="round" stroke-linecap="round" stroke-width="0.0754" stroke="currentColor" x1="0.0377" y1="0" x2="43.2050" y2="0"></line>
</g>
<g transform="translate(8.8915, 17.3937)">
<line stroke-linejoin="round" stroke-linecap="round" stroke-width="0.0754" stroke="currentColor" x1="0.0377" y1="0" x2="43.2050" y2="0"></line>
</g>
<g transform="translate(51.9909, 8.2206)">
<rect x="0.0000" y="-2.0000" width="0.1432" height="4.0377" ry="0.0000" fill="currentColor"></rect>
</g>
<g transform="translate(51.9909, 19.3937)">
<rect x="0.0000" y="-2.0377" width="0.1432" height="4.0377" ry="0.0000" fill="currentColor"></rect>
</g>
<g transform="translate(51.9909, 2.7783)">
<rect x="0.0000" y="7.4800" width="0.1432" height="7.1354" ry="0.0000" fill="currentColor"></rect>
</g>
<a style="color:inherit;" xlink:href="textedit:///home/camus/work/intelli-piano/data:d57d28bcbaf59166.ly:38:109:131">
<g transform="translate(43.0235, 6.2206)">
<path transform="scale(0.0040, -0.0040)" d="M222 135c53 0 104 -27 104 -86c0 -71 -56 -120 -103 -148c-36 -22 -76 -36 -118 -36c-53 0 -105 27 -105 86c0 71 57 120 104 148c36 22 76 36 118 36z" fill="currentColor"></path>
</g>
</a>
<a style="color:inherit;" xlink:href="textedit:///home/camus/work/intelli-piano/data:d57d28bcbaf59166.ly:34:186:208">
<g transform="translate(41.7177, 10.7206)">
<path transform="scale(0.0040, -0.0040)" d="M222 135c53 0 104 -27 104 -86c0 -71 -56 -120 -103 -148c-36 -22 -76 -36 -118 -36c-53 0 -105 27 -105 86c0 71 57 120 104 148c36 22 76 36 118 36z" fill="currentColor"></path>
</g>
</a>
<a style="color:inherit;" xlink:href="textedit:///home/camus/work/intelli-piano/data:d57d28bcbaf59166.ly:40:101:123">
<g transform="translate(41.7177, 20.3937)">
<path transform="scale(0.0040, -0.0040)" d="M222 135c53 0 104 -27 104 -86c0 -71 -56 -120 -103 -148c-36 -22 -76 -36 -118 -36c-53 0 -105 27 -105 86c0 71 57 120 104 148c36 22 76 36 118 36z" fill="currentColor"></path>
</g>
</a>
<g transform="translate(43.0725, 8.2206)">
<rect x="-0.0490" y="-1.8033" width="0.0980" height="2.7807" ry="0.0250" fill="currentColor"></rect>
</g>
<g transform="translate(41.7667, 8.2206)">
<rect x="-0.0490" y="2.6967" width="0.0980" height="4.5056" ry="0.0250" fill="currentColor"></rect>
</g>
<g transform="translate(41.7667, 19.3937)">
<rect x="-0.0490" y="1.1967" width="0.0980" height="2.3033" ry="0.0250" fill="currentColor"></rect>
</g>
<a style="color:inherit;" xlink:href="textedit:///home/camus/work/intelli-piano/data:d57d28bcbaf59166.ly:34:144:166">
<g transform="translate(36.7061, 18.3937)">
<path transform="scale(0.0040, -0.0040)" d="M222 135c53 0 104 -27 104 -86c0 -71 -56 -120 -103 -148c-36 -22 -76 -36 -118 -36c-53 0 -105 27 -105 86c0 71 57 120 104 148c36 22 76 36 118 36z" fill="currentColor"></path>
</g>
</a>
<a style="color:inherit;" xlink:href="textedit:///home/camus/work/intelli-piano/data:d57d28bcbaf59166.ly:34:93:115">
<g transform="translate(23.3791, 3.0183)">
<polygon stroke-linejoin="round" stroke-linecap="round" stroke-width="0.0500" fill="currentColor" stroke="currentColor" points="6.8404 1.4873 6.8404 1.9173 0.0250 0.2150 0.0250 -0.2150"></polygon>
</g>
<g transform="translate(23.3791, 3.8160)">
<polygon stroke-linejoin="round" stroke-linecap="round" stroke-width="0.0500" fill="currentColor" stroke="currentColor" points="6.8404 1.4873 6.8404 1.9173 0.0250 0.2150 0.0250 -0.2150"></polygon>
</g>
<g transform="translate(23.3791, 4.6137)">
<polygon stroke-linejoin="round" stroke-linecap="round" stroke-width="0.0500" fill="currentColor" stroke="currentColor" points="6.8404 1.4873 6.8404 1.9173 0.0250 0.2150 0.0250 -0.2150"></polygon>
</g>
</a>
<a style="color:inherit;" xlink:href="textedit:///home/camus/work/intelli-piano/data:d57d28bcbaf59166.ly:34:139:161">
<g transform="translate(33.9503, 19.3937)">
<path transform="scale(0.0040, -0.0040)" d="M222 135c53 0 104 -27 104 -86c0 -71 -56 -120 -103 -148c-36 -22 -76 -36 -118 -36c-53 0 -105 27 -105 86c0 71 57 120 104 148c36 22 76 36 118 36z" fill="currentColor"></path>
</g>
</a>
<g transform="translate(35.2071, 19.3937)">
<rect x="-0.0490" y="-4.6513" width="0.0980" height="4.4546" ry="0.0250" fill="currentColor"></rect>
</g>
<g transform="translate(37.9629, 19.3937)">
<rect x="-0.0490" y="-4.8323" width="0.0980" height="3.6355" ry="0.0250" fill="currentColor"></rect>
</g>
<a style="color:inherit;" xlink:href="textedit:///home/camus/work/intelli-piano/data:d57d28bcbaf59166.ly:34:149:171">
<g transform="translate(39.2119, 17.8937)">
<path transform="scale(0.0040, -0.0040)" d="M222 135c53 0 104 -27 104 -86c0 -71 -56 -120 -103 -148c-36 -22 -76 -36 -118 -36c-53 0 -105 27 -105 86c0 71 57 120 104 148c36 22 76 36 118 36z" fill="currentColor"></path>
</g>
</a>
<g transform="translate(40.4687, 19.3937)">
<rect x="-0.0490" y="-4.9968" width="0.0980" height="3.3001" ry="0.0250" fill="currentColor"></rect>
</g>
<a style="color:inherit;" xlink:href="textedit:///home/camus/work/intelli-piano/data:d57d28bcbaf59166.ly:34:192:214">
<g transform="translate(41.7177, 13.8276)">
<polygon stroke-linejoin="round" stroke-linecap="round" stroke-width="0.0500" fill="currentColor" stroke="currentColor" points="7.8404 -0.2150 7.8404 0.2150 0.0250 0.2150 0.0250 -0.2150"></polygon>
</g>
<g transform="translate(41.7177, 14.6253)">
<polygon stroke-linejoin="round" stroke-linecap="round" stroke-width="0.0500" fill="currentColor" stroke="currentColor" points="7.8404 -0.2150 7.8404 0.2150 0.0250 0.2150 0.0250 -0.2150"></polygon>
</g>
<g transform="translate(41.7177, 15.4229)">
<polygon stroke-linejoin="round" stroke-linecap="round" stroke-width="0.0500" fill="currentColor" stroke="currentColor" points="7.8404 -0.2150 7.8404 0.2150 0.0250 0.2150 0.0250 -0.2150"></polygon>
</g>
</a>
<a style="color:inherit;" xlink:href="textedit:///home/camus/work/intelli-piano/data:d57d28bcbaf59166.ly:34:137:159">
<g transform="translate(32.9023, 14.8937)">
<polygon stroke-linejoin="round" stroke-linecap="round" stroke-width="0.0500" fill="currentColor" stroke="currentColor" points="7.5904 -0.7150 7.5904 -0.2850 0.0250 0.2150 0.0250 -0.2150"></polygon>
</g>
<g transform="translate(32.9023, 15.6914)">
<polygon stroke-linejoin="round" stroke-linecap="round" stroke-width="0.0500" fill="currentColor" stroke="currentColor" points="7.5904 -0.7150 7.5904 -0.2850 0.0250 0.2150 0.0250 -0.2150"></polygon>
</g>
<g transform="translate(32.9023, 16.4890)">
<polygon stroke-linejoin="round" stroke-linecap="round" stroke-width="0.0500" fill="currentColor" stroke="currentColor" points="7.5904 -0.7150 7.5904 -0.2850 0.0250 0.2150 0.0250 -0.2150"></polygon>
</g>
</a>
<a style="color:inherit;" xlink:href="textedit:///home/camus/work/intelli-piano/data:d57d28bcbaf59166.ly:38:107:129">
<g transform="translate(31.6945, 8.2206)">
<path stroke-width="0.0603" stroke-linejoin="round" stroke-linecap="round" stroke="currentColor" fill="currentColor" d="M0.6203 -2.1889C2.4146 -3.8364 9.9293 -4.4002 11.9494 -3.0389L11.9494 -3.0389C9.9361 -4.3100 2.4214 -3.7462 0.6203 -2.1889z"></path>
</g>
</a>
<a style="color:inherit;" xlink:href="textedit:///home/camus/work/intelli-piano/data:d57d28bcbaf59166.ly:40:96:118">
<g transform="translate(22.1713, 22.8937)">
<polygon stroke-linejoin="round" stroke-linecap="round" stroke-width="0.0500" fill="currentColor" stroke="currentColor" points="19.6194 -0.2150 19.6194 0.2150 0.0250 0.2150 0.0250 -0.2150"></polygon>
</g>
</a>
<a style="color:inherit;" xlink:href="textedit:///home/camus/work/intelli-piano/data:d57d28bcbaf59166.ly:38:80:102">
<g transform="translate(23.3791, 11.8937)">
<polygon stroke-linejoin="round" stroke-linecap="round" stroke-width="0.0500" fill="currentColor" stroke="currentColor" points="19.7174 -2.9173 19.7174 -2.4873 0.0250 0.2150 0.0250 -0.2150"></polygon>
</g>
</a>
<a style="color:inherit;" xlink:href="textedit:///home/camus/work/intelli-piano/data:d57d28bcbaf59166.ly:34:222:244">
<g transform="translate(43.0157, 17.8937)">
<path transform="scale(0.0040, -0.0040)" d="M222 135c53 0 104 -27 104 -86c0 -71 -56 -120 -103 -148c-36 -22 -76 -36 -118 -36c-53 0 -105 27 -105 86c0 71 57 120 104 148c36 22 76 36 118 36z" fill="currentColor"></path>
</g>
</a>
<g transform="translate(44.2725, 19.3937)">
<rect x="-0.0490" y="-5.5661" width="0.0980" height="3.8694" ry="0.0250" fill="currentColor"></rect>
</g>
<a style="color:inherit;" xlink:href="textedit:///home/camus/work/intelli-piano/data:d57d28bcbaf59166.ly:34:258:280">
<g transform="translate(46.7293, 11.7206)">
<path transform="scale(0.0040, -0.0040)" d="M222 135c53 0 104 -27 104 -86c0 -71 -56 -120 -103 -148c-36 -22 -76 -36 -118 -36c-53 0 -105 27 -105 86c0 71 57 120 104 148c36 22 76 36 118 36z" fill="currentColor"></path>
</g>
</a>
<g transform="translate(46.7783, 8.2206)">
<rect x="-0.0490" y="3.6967" width="0.0980" height="3.5056" ry="0.0250" fill="currentColor"></rect>
</g>
<a style="color:inherit;" xlink:href="textedit:///home/camus/work/intelli-piano/data:d57d28bcbaf59166.ly:34:262:284">
<g transform="translate(49.4851, 10.7206)">
<path transform="scale(0.0040, -0.0040)" d="M222 135c53 0 104 -27 104 -86c0 -71 -56 -120 -103 -148c-36 -22 -76 -36 -118 -36c-53 0 -105 27 -105 86c0 71 57 120 104 148c36 22 76 36 118 36z" fill="currentColor"></path>
</g>
</a>
<g transform="translate(49.5341, 8.2206)">
<rect x="-0.0490" y="2.6967" width="0.0980" height="4.5056" ry="0.0250" fill="currentColor"></rect>
</g>
<g transform="translate(23.4281, 19.3937)">
<rect x="-0.0490" y="-7.5067" width="0.0980" height="4.8100" ry="0.0250" fill="currentColor"></rect>
</g>
<g transform="translate(22.2202, 19.3937)">
<rect x="-0.0490" y="0.1967" width="0.0980" height="3.3033" ry="0.0250" fill="currentColor"></rect>
</g>
<a style="color:inherit;" xlink:href="textedit:///home/camus/work/intelli-piano/data:d57d28bcbaf59166.ly:34:43:65">
<g transform="translate(18.8055, 8.2206)">
<path transform="scale(0.0040, -0.0040)" d="M147 479c-28 0 -58 -9 -58 -33c0 -22 36 -25 36 -47c0 -32 -25 -57 -57 -57s-57 25 -57 57c0 63 66 101 136 101c90 0 165 -35 165 -115c0 -44 -3 -83 -41 -101c-8 -4 -13 -12 -13 -20s5 -16 13 -20c41 -19 55 -58 55 -104c0 -91 -77 -140 -175 -140
c-77 0 -151 41 -151 111c0 36 29 65 65 65s65 -29 65 -65c0 -25 -40 -28 -40 -53c0 -26 31 -37 61 -37c50 0 66 61 66 119c0 62 -1 110 -54 110h-82c-9 0 -13 7 -13 14s4 13 13 13h82c52 0 54 47 54 108c0 56 -18 94 -70 94z" fill="currentColor"></path>
</g>
<g transform="translate(18.7415, 10.2265)">
<path transform="scale(0.0040, -0.0040)" d="M252 285c29 30 54 62 54 103c0 56 -58 91 -119 91c-49 0 -78 -38 -78 -75c0 -22 9 -42 31 -55zM279 269c55 -32 85 -78 85 -127c0 -72 -65 -142 -185 -142c-92 0 -179 53 -179 138c0 51 40 86 78 121c-44 28 -64 69 -64 109c0 67 60 132 173 132c80 0 158 -40 158 -112
c0 -48 -32 -84 -66 -119zM106 243c-34 -30 -66 -61 -66 -105c0 -69 66 -117 139 -117c55 0 88 43 88 85c0 25 -11 51 -37 66z" fill="currentColor"></path>
</g>
</a>
<g transform="translate(8.5709, 13.8071)">
<path transform="scale(0.0040, -0.0040)" d="M-208 -1336c0 312 124 616 124 912c0 156 -36 300 -144 416c0 4 -4 4 -4 8s4 4 4 8c108 116 144 260 144 416c0 296 -124 600 -124 912c0 212 52 420 196 576c16 16 40 -8 24 -24c-108 -120 -144 -264 -144 -420c0 -292 116 -588 116 -896c0 -212 -48 -416 -188 -572
c140 -156 188 -360 188 -572c0 -308 -116 -604 -116 -896c0 -156 36 -300 144 -420c16 -16 -8 -40 -24 -24c-144 156 -196 364 -196 576z" fill="currentColor"></path>
</g>
<g transform="translate(8.8709, 13.8071)">
<rect x="0.0000" y="-7.6242" width="0.1206" height="15.2484" ry="0.0377" fill="currentColor"></rect>
</g>
<a style="color:inherit;" xlink:href="textedit:///home/camus/work/intelli-piano/data:d57d28bcbaf59166.ly:34:87:109">
<g transform="translate(22.1713, 6.2206)">
<path transform="scale(0.0040, -0.0040)" d="M222 135c53 0 104 -27 104 -86c0 -71 -56 -120 -103 -148c-36 -22 -76 -36 -118 -36c-53 0 -105 27 -105 86c0 71 57 120 104 148c36 22 76 36 118 36z" fill="currentColor"></path>
</g>
</a>
<g transform="translate(9.6915, 9.2206)">
<path transform="scale(0.0040, -0.0040)" d="M374 260c5 0 10 1 15 1c154 0 254 -127 254 -259c0 -76 -33 -153 -107 -208c-22 -17 -47 -29 -73 -37c3 -36 5 -72 5 -108c0 -19 0 -37 -1 -56c-7 -120 -88 -226 -206 -226c-108 0 -195 87 -195 195c0 58 53 104 112 104c54 0 95 -48 95 -104c0 -52 -43 -95 -95 -95
c-12 0 -24 4 -35 9c26 -41 70 -70 121 -70c1 0 2 1 3 1c93 2 154 93 160 192c1 18 2 35 2 53c0 32 -2 64 -5 96c-29 -5 -58 -8 -89 -8c-188 0 -333 171 -333 372c0 178 133 306 251 440c-18 63 -35 126 -42 191c-6 51 -7 102 -7 154c0 116 55 226 150 295c5 4 11 4 16 0
c70 -84 132 -246 132 -359c0 -144 -87 -256 -183 -365c20 -69 39 -138 55 -208zM459 -205c69 24 117 96 117 166c0 92 -69 184 -179 193c25 -117 48 -235 62 -359zM71 31c0 -136 131 -251 267 -251c28 0 55 2 82 6c-15 128 -38 247 -64 367c-79 -9 -125 -62 -125 -121
c0 -44 26 -92 82 -124c4 -4 7 -9 7 -14c0 -11 -9 -21 -20 -21c-3 0 -6 1 -9 2c-80 43 -116 114 -116 184c0 88 57 173 158 196c-14 60 -30 119 -46 178c-108 -121 -216 -242 -216 -402zM411 1050c-99 -50 -161 -151 -161 -262c0 -76 15 -137 33 -200c82 97 149 198 149 325
c0 58 -4 84 -21 137z" fill="currentColor"></path>
</g>
<a style="color:inherit;" xlink:href="textedit:///home/camus/work/intelli-piano/data:d57d28bcbaf59166.ly:34:29:51">
<g transform="translate(13.1915, 6.2206)">
<path transform="scale(0.0040, -0.0040)" d="M215 -316c0 -9 -8 -17 -17 -17s-17 8 -17 17v151l-87 -31v-162c0 -9 -8 -17 -17 -17s-17 8 -17 17v150l-39 -13c-10 -4 -21 4 -21 15v64c0 7 5 13 11 15l49 18v164l-39 -14c-10 -4 -21 4 -21 15v65c0 7 5 13 11 15l49 17v163c0 9 8 17 17 17s17 -8 17 -17v-151l87 31v162
c0 9 8 17 17 17s17 -8 17 -17v-150l39 13c10 4 21 -4 21 -15v-64c0 -7 -5 -13 -11 -15l-49 -18v-164l39 14c10 4 21 -4 21 -15v-65c0 -7 -5 -13 -11 -15l-49 -17v-163zM94 67v-164l87 30v164z" fill="currentColor"></path>
</g>
<g transform="translate(14.2915, 7.7206)">
<path transform="scale(0.0040, -0.0040)" d="M215 -316c0 -9 -8 -17 -17 -17s-17 8 -17 17v151l-87 -31v-162c0 -9 -8 -17 -17 -17s-17 8 -17 17v150l-39 -13c-10 -4 -21 4 -21 15v64c0 7 5 13 11 15l49 18v164l-39 -14c-10 -4 -21 4 -21 15v65c0 7 5 13 11 15l49 17v163c0 9 8 17 17 17s17 -8 17 -17v-151l87 31v162
c0 9 8 17 17 17s17 -8 17 -17v-150l39 13c10 4 21 -4 21 -15v-64c0 -7 -5 -13 -11 -15l-49 -18v-164l39 14c10 4 21 -4 21 -15v-65c0 -7 -5 -13 -11 -15l-49 -17v-163zM94 67v-164l87 30v164z" fill="currentColor"></path>
</g>
<g transform="translate(15.3915, 5.7206)">
<path transform="scale(0.0040, -0.0040)" d="M215 -316c0 -9 -8 -17 -17 -17s-17 8 -17 17v151l-87 -31v-162c0 -9 -8 -17 -17 -17s-17 8 -17 17v150l-39 -13c-10 -4 -21 4 -21 15v64c0 7 5 13 11 15l49 18v164l-39 -14c-10 -4 -21 4 -21 15v65c0 7 5 13 11 15l49 17v163c0 9 8 17 17 17s17 -8 17 -17v-151l87 31v162
c0 9 8 17 17 17s17 -8 17 -17v-150l39 13c10 4 21 -4 21 -15v-64c0 -7 -5 -13 -11 -15l-49 -18v-164l39 14c10 4 21 -4 21 -15v-65c0 -7 -5 -13 -11 -15l-49 -17v-163zM94 67v-164l87 30v164z" fill="currentColor"></path>
</g>
<g transform="translate(16.4915, 7.2206)">
<path transform="scale(0.0040, -0.0040)" d="M215 -316c0 -9 -8 -17 -17 -17s-17 8 -17 17v151l-87 -31v-162c0 -9 -8 -17 -17 -17s-17 8 -17 17v150l-39 -13c-10 -4 -21 4 -21 15v64c0 7 5 13 11 15l49 18v164l-39 -14c-10 -4 -21 4 -21 15v65c0 7 5 13 11 15l49 17v163c0 9 8 17 17 17s17 -8 17 -17v-151l87 31v162
c0 9 8 17 17 17s17 -8 17 -17v-150l39 13c10 4 21 -4 21 -15v-64c0 -7 -5 -13 -11 -15l-49 -18v-164l39 14c10 4 21 -4 21 -15v-65c0 -7 -5 -13 -11 -15l-49 -17v-163zM94 67v-164l87 30v164z" fill="currentColor"></path>
</g>
</a>
<a style="color:inherit;" xlink:href="textedit:///home/camus/work/intelli-piano/data:d57d28bcbaf59166.ly:38:77:99">
<g transform="translate(22.1713, 16.8937)">
<path transform="scale(0.0040, -0.0040)" d="M222 135c53 0 104 -27 104 -86c0 -71 -56 -120 -103 -148c-36 -22 -76 -36 -118 -36c-53 0 -105 27 -105 86c0 71 57 120 104 148c36 22 76 36 118 36z" fill="currentColor"></path>
</g>
</a>
<a style="color:inherit;" xlink:href="textedit:///home/camus/work/intelli-piano/data:d57d28bcbaf59166.ly:40:88:110">
<g transform="translate(22.1713, 20.3937)">
<path transform="scale(0.0040, -0.0040)" d="M222 135c53 0 104 -27 104 -86c0 -71 -56 -120 -103 -148c-36 -22 -76 -36 -118 -36c-53 0 -105 27 -105 86c0 71 57 120 104 148c36 22 76 36 118 36z" fill="currentColor"></path>
</g>
</a>
<a style="color:inherit;" xlink:href="textedit:///home/camus/work/intelli-piano/data:d57d28bcbaf59166.ly:40:91:113">
<g transform="translate(22.1713, 19.3937)">
<path transform="scale(0.0040, -0.0040)" d="M222 135c53 0 104 -27 104 -86c0 -71 -56 -120 -103 -148c-36 -22 -76 -36 -118 -36c-53 0 -105 27 -105 86c0 71 57 120 104 148c36 22 76 36 118 36z" fill="currentColor"></path>
</g>
</a>
<g transform="translate(9.6915, 18.3937)">
<path transform="scale(0.0040, -0.0040)" d="M556 -125c0 29 23 52 52 52s52 -23 52 -52s-23 -52 -52 -52s-52 23 -52 52zM556 125c0 29 23 52 52 52s52 -23 52 -52s-23 -52 -52 -52s-52 23 -52 52zM233 261c171 0 292 -86 292 -248c0 -263 -264 -415 -517 -521c-2 -2 -5 -3 -8 -3c-6 0 -11 5 -11 11c0 3 1 6 3 8
c203 118 415 265 415 494c0 121 -64 237 -174 237c-79 0 -138 -57 -164 -133c14 8 28 13 43 13c55 0 100 -45 100 -100c0 -58 -44 -107 -100 -107c-60 0 -112 48 -112 107c0 132 103 242 233 242z" fill="currentColor"></path>
</g>
<a style="color:inherit;" xlink:href="textedit:///home/camus/work/intelli-piano/data:d57d28bcbaf59166.ly:38:29:51">
<g transform="translate(13.1915, 18.3937)">
<path transform="scale(0.0040, -0.0040)" d="M215 -316c0 -9 -8 -17 -17 -17s-17 8 -17 17v151l-87 -31v-162c0 -9 -8 -17 -17 -17s-17 8 -17 17v150l-39 -13c-10 -4 -21 4 -21 15v64c0 7 5 13 11 15l49 18v164l-39 -14c-10 -4 -21 4 -21 15v65c0 7 5 13 11 15l49 17v163c0 9 8 17 17 17s17 -8 17 -17v-151l87 31v162
c0 9 8 17 17 17s17 -8 17 -17v-150l39 13c10 4 21 -4 21 -15v-64c0 -7 -5 -13 -11 -15l-49 -18v-164l39 14c10 4 21 -4 21 -15v-65c0 -7 -5 -13 -11 -15l-49 -17v-163zM94 67v-164l87 30v164z" fill="currentColor"></path>
</g>
<g transform="translate(14.2915, 19.8937)">
<path transform="scale(0.0040, -0.0040)" d="M215 -316c0 -9 -8 -17 -17 -17s-17 8 -17 17v151l-87 -31v-162c0 -9 -8 -17 -17 -17s-17 8 -17 17v150l-39 -13c-10 -4 -21 4 -21 15v64c0 7 5 13 11 15l49 18v164l-39 -14c-10 -4 -21 4 -21 15v65c0 7 5 13 11 15l49 17v163c0 9 8 17 17 17s17 -8 17 -17v-151l87 31v162
c0 9 8 17 17 17s17 -8 17 -17v-150l39 13c10 4 21 -4 21 -15v-64c0 -7 -5 -13 -11 -15l-49 -18v-164l39 14c10 4 21 -4 21 -15v-65c0 -7 -5 -13 -11 -15l-49 -17v-163zM94 67v-164l87 30v164z" fill="currentColor"></path>
</g>
<g transform="translate(15.3915, 17.8937)">
<path transform="scale(0.0040, -0.0040)" d="M215 -316c0 -9 -8 -17 -17 -17s-17 8 -17 17v151l-87 -31v-162c0 -9 -8 -17 -17 -17s-17 8 -17 17v150l-39 -13c-10 -4 -21 4 -21 15v64c0 7 5 13 11 15l49 18v164l-39 -14c-10 -4 -21 4 -21 15v65c0 7 5 13 11 15l49 17v163c0 9 8 17 17 17s17 -8 17 -17v-151l87 31v162
c0 9 8 17 17 17s17 -8 17 -17v-150l39 13c10 4 21 -4 21 -15v-64c0 -7 -5 -13 -11 -15l-49 -18v-164l39 14c10 4 21 -4 21 -15v-65c0 -7 -5 -13 -11 -15l-49 -17v-163zM94 67v-164l87 30v164z" fill="currentColor"></path>
</g>
<g transform="translate(16.4915, 19.3937)">
<path transform="scale(0.0040, -0.0040)" d="M215 -316c0 -9 -8 -17 -17 -17s-17 8 -17 17v151l-87 -31v-162c0 -9 -8 -17 -17 -17s-17 8 -17 17v150l-39 -13c-10 -4 -21 4 -21 15v64c0 7 5 13 11 15l49 18v164l-39 -14c-10 -4 -21 4 -21 15v65c0 7 5 13 11 15l49 17v163c0 9 8 17 17 17s17 -8 17 -17v-151l87 31v162
c0 9 8 17 17 17s17 -8 17 -17v-150l39 13c10 4 21 -4 21 -15v-64c0 -7 -5 -13 -11 -15l-49 -18v-164l39 14c10 4 21 -4 21 -15v-65c0 -7 -5 -13 -11 -15l-49 -17v-163zM94 67v-164l87 30v164z" fill="currentColor"></path>
</g>
</a>
<a style="color:inherit;" xlink:href="textedit:///home/camus/work/intelli-piano/data:d57d28bcbaf59166.ly:40:43:65">
<g transform="translate(18.8055, 19.3937)">
<path transform="scale(0.0040, -0.0040)" d="M147 479c-28 0 -58 -9 -58 -33c0 -22 36 -25 36 -47c0 -32 -25 -57 -57 -57s-57 25 -57 57c0 63 66 101 136 101c90 0 165 -35 165 -115c0 -44 -3 -83 -41 -101c-8 -4 -13 -12 -13 -20s5 -16 13 -20c41 -19 55 -58 55 -104c0 -91 -77 -140 -175 -140
c-77 0 -151 41 -151 111c0 36 29 65 65 65s65 -29 65 -65c0 -25 -40 -28 -40 -53c0 -26 31 -37 61 -37c50 0 66 61 66 119c0 62 -1 110 -54 110h-82c-9 0 -13 7 -13 14s4 13 13 13h82c52 0 54 47 54 108c0 56 -18 94 -70 94z" fill="currentColor"></path>
</g>
<g transform="translate(18.7415, 21.3996)">
<path transform="scale(0.0040, -0.0040)" d="M252 285c29 30 54 62 54 103c0 56 -58 91 -119 91c-49 0 -78 -38 -78 -75c0 -22 9 -42 31 -55zM279 269c55 -32 85 -78 85 -127c0 -72 -65 -142 -185 -142c-92 0 -179 53 -179 138c0 51 40 86 78 121c-44 28 -64 69 -64 109c0 67 60 132 173 132c80 0 158 -40 158 -112
c0 -48 -32 -84 -66 -119zM106 243c-34 -30 -66 -61 -66 -105c0 -69 66 -117 139 -117c55 0 88 43 88 85c0 25 -11 51 -37 66z" fill="currentColor"></path>
</g>
</a>
<g transform="translate(23.4281, 8.2206)">
<rect x="-0.0490" y="-5.1902" width="0.0980" height="2.9934" ry="0.0250" fill="currentColor"></rect>
</g>
<g transform="translate(30.1955, 8.2206)">
<rect x="-0.0490" y="-3.5121" width="0.0980" height="4.3154" ry="0.0250" fill="currentColor"></rect>
</g>
<a style="color:inherit;" xlink:href="textedit:///home/camus/work/intelli-piano/data:d57d28bcbaf59166.ly:38:102:124">
<g transform="translate(31.6945, 7.2206)">
<path transform="scale(0.0040, -0.0040)" d="M222 135c53 0 104 -27 104 -86c0 -71 -56 -120 -103 -148c-36 -22 -76 -36 -118 -36c-53 0 -105 27 -105 86c0 71 57 120 104 148c36 22 76 36 118 36z" fill="currentColor"></path>
</g>
</a>
<a style="color:inherit;" xlink:href="textedit:///home/camus/work/intelli-piano/data:d57d28bcbaf59166.ly:40:98:120">
<g transform="translate(31.6945, 20.3937)">
<path transform="scale(0.0040, -0.0040)" d="M222 135c53 0 104 -27 104 -86c0 -71 -56 -120 -103 -148c-36 -22 -76 -36 -118 -36c-53 0 -105 27 -105 86c0 71 57 120 104 148c36 22 76 36 118 36z" fill="currentColor"></path>
</g>
</a>
<a style="color:inherit;" xlink:href="textedit:///home/camus/work/intelli-piano/data:d57d28bcbaf59166.ly:34:131:153">
<g transform="translate(31.6945, 18.3937)">
<path transform="scale(0.0040, -0.0040)" d="M222 135c53 0 104 -27 104 -86c0 -71 -56 -120 -103 -148c-36 -22 -76 -36 -118 -36c-53 0 -105 27 -105 86c0 71 57 120 104 148c36 22 76 36 118 36z" fill="currentColor"></path>
</g>
</a>
<g transform="translate(31.7435, 8.2206)">
<rect x="-0.0490" y="-0.8033" width="0.0980" height="3.3314" ry="0.0250" fill="currentColor"></rect>
</g>
<g transform="translate(31.7435, 19.3937)">
<rect x="-0.0490" y="1.1967" width="0.0980" height="2.3033" ry="0.0250" fill="currentColor"></rect>
</g>
<g transform="translate(32.9513, 19.3937)">
<rect x="-0.0490" y="-4.5032" width="0.0980" height="3.3065" ry="0.0250" fill="currentColor"></rect>
</g>
<a style="color:inherit;" xlink:href="textedit:///home/camus/work/intelli-piano/data:d57d28bcbaf59166.ly:34:104:126">
<g transform="translate(28.9387, 9.2206)">
<path transform="scale(0.0040, -0.0040)" d="M222 135c53 0 104 -27 104 -86c0 -71 -56 -120 -103 -148c-36 -22 -76 -36 -118 -36c-53 0 -105 27 -105 86c0 71 57 120 104 148c36 22 76 36 118 36z" fill="currentColor"></path>
</g>
</a>
<a style="color:inherit;" xlink:href="textedit:///home/camus/work/intelli-piano/data:d57d28bcbaf59166.ly:34:95:117">
<g transform="translate(24.4271, 7.2206)">
<path transform="scale(0.0040, -0.0040)" d="M222 135c53 0 104 -27 104 -86c0 -71 -56 -120 -103 -148c-36 -22 -76 -36 -118 -36c-53 0 -105 27 -105 86c0 71 57 120 104 148c36 22 76 36 118 36z" fill="currentColor"></path>
</g>
</a>
<g transform="translate(25.6839, 8.2206)">
<rect x="-0.0490" y="-4.6308" width="0.0980" height="3.4341" ry="0.0250" fill="currentColor"></rect>
</g>
<a style="color:inherit;" xlink:href="textedit:///home/camus/work/intelli-piano/data:d57d28bcbaf59166.ly:34:100:122">
<g transform="translate(26.6829, 8.2206)">
<path transform="scale(0.0040, -0.0040)" d="M222 135c53 0 104 -27 104 -86c0 -71 -56 -120 -103 -148c-36 -22 -76 -36 -118 -36c-53 0 -105 27 -105 86c0 71 57 120 104 148c36 22 76 36 118 36z" fill="currentColor"></path>
</g>
</a>
<g transform="translate(27.9397, 8.2206)">
<rect x="-0.0490" y="-4.0715" width="0.0980" height="3.8748" ry="0.0250" fill="currentColor"></rect>
</g>
</svg>